<mxfile host="Electron" agent="Mozilla/5.0 (Windows NT 10.0; Win64; x64) AppleWebKit/537.36 (KHTML, like Gecko) draw.io/24.7.5 Chrome/126.0.6478.183 Electron/31.3.0 Safari/537.36" version="24.7.5">
  <diagram name="Page-1" id="jN0TX7RecguX12PFmwCr">
    <mxGraphModel dx="503" dy="304" grid="1" gridSize="10" guides="1" tooltips="1" connect="1" arrows="1" fold="1" page="1" pageScale="1" pageWidth="850" pageHeight="1100" math="0" shadow="0">
      <root>
        <mxCell id="0" />
        <mxCell id="1" parent="0" />
        <mxCell id="I_EGdVqQMCTby0gbcVqI-4" style="edgeStyle=orthogonalEdgeStyle;rounded=0;orthogonalLoop=1;jettySize=auto;html=1;entryX=0;entryY=0.5;entryDx=0;entryDy=0;fillColor=#dae8fc;strokeColor=#6c8ebf;" edge="1" parent="1" source="I_EGdVqQMCTby0gbcVqI-1" target="I_EGdVqQMCTby0gbcVqI-2">
          <mxGeometry relative="1" as="geometry" />
        </mxCell>
        <mxCell id="I_EGdVqQMCTby0gbcVqI-1" value="مستخدم النظام" style="shape=umlActor;verticalLabelPosition=bottom;verticalAlign=top;html=1;outlineConnect=0;fillColor=#dae8fc;strokeColor=#6c8ebf;" vertex="1" parent="1">
          <mxGeometry x="400" y="230" width="40" height="80" as="geometry" />
        </mxCell>
        <mxCell id="I_EGdVqQMCTby0gbcVqI-2" value="Login" style="ellipse;whiteSpace=wrap;html=1;fillColor=#e1d5e7;strokeColor=#9673a6;" vertex="1" parent="1">
          <mxGeometry x="550" y="60" width="80" height="50" as="geometry" />
        </mxCell>
        <mxCell id="I_EGdVqQMCTby0gbcVqI-10" style="edgeStyle=orthogonalEdgeStyle;rounded=0;orthogonalLoop=1;jettySize=auto;html=1;fillColor=#dae8fc;strokeColor=#6c8ebf;" edge="1" parent="1" source="I_EGdVqQMCTby0gbcVqI-6" target="I_EGdVqQMCTby0gbcVqI-12">
          <mxGeometry relative="1" as="geometry">
            <mxPoint x="560" y="360" as="targetPoint" />
            <Array as="points">
              <mxPoint x="560" y="480" />
              <mxPoint x="560" y="480" />
            </Array>
          </mxGeometry>
        </mxCell>
        <mxCell id="I_EGdVqQMCTby0gbcVqI-14" style="edgeStyle=orthogonalEdgeStyle;rounded=0;orthogonalLoop=1;jettySize=auto;html=1;fillColor=#dae8fc;strokeColor=#6c8ebf;" edge="1" parent="1" source="I_EGdVqQMCTby0gbcVqI-6" target="I_EGdVqQMCTby0gbcVqI-13">
          <mxGeometry relative="1" as="geometry">
            <Array as="points">
              <mxPoint x="420" y="340" />
            </Array>
          </mxGeometry>
        </mxCell>
        <mxCell id="I_EGdVqQMCTby0gbcVqI-6" value="رئيس فريق العمل" style="shape=umlActor;verticalLabelPosition=bottom;verticalAlign=top;html=1;outlineConnect=0;fillColor=#dae8fc;strokeColor=#6c8ebf;" vertex="1" parent="1">
          <mxGeometry x="400" y="440" width="40" height="80" as="geometry" />
        </mxCell>
        <mxCell id="I_EGdVqQMCTby0gbcVqI-12" value="متابعة مشروع" style="ellipse;whiteSpace=wrap;html=1;fillColor=#e1d5e7;strokeColor=#9673a6;" vertex="1" parent="1">
          <mxGeometry x="630" y="420" width="80" height="50" as="geometry" />
        </mxCell>
        <mxCell id="I_EGdVqQMCTby0gbcVqI-13" value="إدارة المشاركين بالمشروع" style="ellipse;whiteSpace=wrap;html=1;fillColor=#e1d5e7;strokeColor=#9673a6;" vertex="1" parent="1">
          <mxGeometry x="640" y="310" width="80" height="50" as="geometry" />
        </mxCell>
        <mxCell id="I_EGdVqQMCTby0gbcVqI-15" value="إدارة المشاركين بالمشروع" style="ellipse;whiteSpace=wrap;html=1;fillColor=#e1d5e7;strokeColor=#9673a6;" vertex="1" parent="1">
          <mxGeometry x="610" y="530" width="80" height="50" as="geometry" />
        </mxCell>
      </root>
    </mxGraphModel>
  </diagram>
</mxfile>
